<svg xmlns="http://www.w3.org/2000/svg" width="1000" height="560" viewBox="0 0 1000 560">
<rect width="100%" height="100%" fill="white"/>
<text x="500.0" y="35" text-anchor="middle" font-family="Arial" font-size="22" font-weight="bold">20-case development gate: decomposed quality</text>
<line x1="90" y1="470.0" x2="960" y2="470.0" stroke="#ddd"/><text x="80" y="475.0" text-anchor="end" font-family="Arial" font-size="13">0</text>
<line x1="90" y1="390.0" x2="960" y2="390.0" stroke="#ddd"/><text x="80" y="395.0" text-anchor="end" font-family="Arial" font-size="13">20</text>
<line x1="90" y1="310.0" x2="960" y2="310.0" stroke="#ddd"/><text x="80" y="315.0" text-anchor="end" font-family="Arial" font-size="13">40</text>
<line x1="90" y1="230.0" x2="960" y2="230.0" stroke="#ddd"/><text x="80" y="235.0" text-anchor="end" font-family="Arial" font-size="13">60</text>
<line x1="90" y1="150.0" x2="960" y2="150.0" stroke="#ddd"/><text x="80" y="155.0" text-anchor="end" font-family="Arial" font-size="13">80</text>
<line x1="90" y1="70.0" x2="960" y2="70.0" stroke="#ddd"/><text x="80" y="75.0" text-anchor="end" font-family="Arial" font-size="13">100</text>
<text x="198.75" y="515" text-anchor="middle" font-family="Arial" font-size="12">Qwen3.5 0.8B</text>
<rect x="105.0" y="470.0" width="34.5" height="0.0" fill="#4C78A8"/><text x="122.25" y="465.0" text-anchor="middle" font-family="Arial" font-size="11">0</text>
<rect x="142.5" y="470.0" width="34.5" height="0.0" fill="#59A14F"/><text x="159.75" y="465.0" text-anchor="middle" font-family="Arial" font-size="11">0</text>
<rect x="180.0" y="470.0" width="34.5" height="0.0" fill="#F28E2B"/><text x="197.25" y="465.0" text-anchor="middle" font-family="Arial" font-size="11">0</text>
<rect x="217.5" y="470.0" width="34.5" height="0.0" fill="#E15759"/><text x="234.75" y="465.0" text-anchor="middle" font-family="Arial" font-size="11">0</text>
<rect x="255.0" y="470.0" width="34.5" height="0.0" fill="#B07AA1"/><text x="272.25" y="465.0" text-anchor="middle" font-family="Arial" font-size="11">0</text>
<text x="416.25" y="515" text-anchor="middle" font-family="Arial" font-size="12">Qwen3.5 2B</text>
<rect x="322.5" y="150.0" width="34.5" height="320.0" fill="#4C78A8"/><text x="339.75" y="145.0" text-anchor="middle" font-family="Arial" font-size="11">80</text>
<rect x="360.0" y="290.0" width="34.5" height="180.0" fill="#59A14F"/><text x="377.25" y="285.0" text-anchor="middle" font-family="Arial" font-size="11">45</text>
<rect x="397.5" y="410.0" width="34.5" height="60.0" fill="#F28E2B"/><text x="414.75" y="405.0" text-anchor="middle" font-family="Arial" font-size="11">15</text>
<rect x="435.0" y="450.0" width="34.5" height="20.0" fill="#E15759"/><text x="452.25" y="445.0" text-anchor="middle" font-family="Arial" font-size="11">5</text>
<rect x="472.5" y="170.0" width="34.5" height="300.0" fill="#B07AA1"/><text x="489.75" y="165.0" text-anchor="middle" font-family="Arial" font-size="11">75</text>
<text x="633.75" y="515" text-anchor="middle" font-family="Arial" font-size="12">Qwen2 1.5B</text>
<rect x="540.0" y="90.0" width="34.5" height="380.0" fill="#4C78A8"/><text x="557.25" y="85.0" text-anchor="middle" font-family="Arial" font-size="11">95</text>
<rect x="577.5" y="390.0" width="34.5" height="80.0" fill="#59A14F"/><text x="594.75" y="385.0" text-anchor="middle" font-family="Arial" font-size="11">20</text>
<rect x="615.0" y="410.0" width="34.5" height="60.0" fill="#F28E2B"/><text x="632.25" y="405.0" text-anchor="middle" font-family="Arial" font-size="11">15</text>
<rect x="652.5" y="470.0" width="34.5" height="0.0" fill="#E15759"/><text x="669.75" y="465.0" text-anchor="middle" font-family="Arial" font-size="11">0</text>
<rect x="690.0" y="150.0" width="34.5" height="320.0" fill="#B07AA1"/><text x="707.25" y="145.0" text-anchor="middle" font-family="Arial" font-size="11">80</text>
<text x="851.25" y="515" text-anchor="middle" font-family="Arial" font-size="12">Phi-3 Mini</text>
<rect x="757.5" y="210.0" width="34.5" height="260.0" fill="#4C78A8"/><text x="774.75" y="205.0" text-anchor="middle" font-family="Arial" font-size="11">65</text>
<rect x="795.0" y="290.0" width="34.5" height="180.0" fill="#59A14F"/><text x="812.25" y="285.0" text-anchor="middle" font-family="Arial" font-size="11">45</text>
<rect x="832.5" y="430.0" width="34.5" height="40.0" fill="#F28E2B"/><text x="849.75" y="425.0" text-anchor="middle" font-family="Arial" font-size="11">10</text>
<rect x="870.0" y="470.0" width="34.5" height="0.0" fill="#E15759"/><text x="887.25" y="465.0" text-anchor="middle" font-family="Arial" font-size="11">0</text>
<rect x="907.5" y="249.99999999999997" width="34.5" height="220.00000000000003" fill="#B07AA1"/><text x="924.75" y="244.99999999999997" text-anchor="middle" font-family="Arial" font-size="11">55</text>
<rect x="90" y="540" width="14" height="14" fill="#4C78A8"/><text x="110" y="552" font-family="Arial" font-size="12">contract</text>
<rect x="250" y="540" width="14" height="14" fill="#59A14F"/><text x="270" y="552" font-family="Arial" font-size="12">intent</text>
<rect x="410" y="540" width="14" height="14" fill="#F28E2B"/><text x="430" y="552" font-family="Arial" font-size="12">target</text>
<rect x="570" y="540" width="14" height="14" fill="#E15759"/><text x="590" y="552" font-family="Arial" font-size="12">slots</text>
<rect x="730" y="540" width="14" height="14" fill="#B07AA1"/><text x="750" y="552" font-family="Arial" font-size="12">fallback</text>
</svg>